<?xml version="1.0" encoding="UTF-8" standalone="no"?>
<!-- Generator: Adobe Illustrator 16.0.4, SVG Export Plug-In . SVG Version: 6.00 Build 0)  -->

<svg
   xmlns:dc="http://purl.org/dc/elements/1.1/"
   xmlns:cc="http://creativecommons.org/ns#"
   xmlns:rdf="http://www.w3.org/1999/02/22-rdf-syntax-ns#"
   xmlns:svg="http://www.w3.org/2000/svg"
   xmlns="http://www.w3.org/2000/svg"
   xmlns:sodipodi="http://sodipodi.sourceforge.net/DTD/sodipodi-0.dtd"
   xmlns:inkscape="http://www.inkscape.org/namespaces/inkscape"
   version="1.0"
   id="Ebene_1"
   x="0px"
   y="0px"
   width="451.04401"
   height="158.185"
   viewBox="0 0 451.044 158.18499"
   enable-background="new 0 0 841.89 595.28"
   xml:space="preserve"
   inkscape:version="0.91 r"
   sodipodi:docname="logo.svg"><metadata
     id="metadata11"><rdf:RDF><cc:Work
         rdf:about=""><dc:format>image/svg+xml</dc:format><dc:type
           rdf:resource="http://purl.org/dc/dcmitype/StillImage" /><dc:title></dc:title></cc:Work></rdf:RDF></metadata><defs
     id="defs9" /><sodipodi:namedview
     pagecolor="#ffffff"
     bordercolor="#666666"
     borderopacity="1"
     objecttolerance="10"
     gridtolerance="10"
     guidetolerance="10"
     inkscape:pageopacity="0"
     inkscape:pageshadow="2"
     inkscape:window-width="1680"
     inkscape:window-height="998"
     id="namedview7"
     showgrid="false"
     fit-margin-top="0"
     fit-margin-left="0"
     fit-margin-right="0"
     fit-margin-bottom="0"
     inkscape:zoom="0.38484837"
     inkscape:cx="231.83786"
     inkscape:cy="79.239985"
     inkscape:window-x="0"
     inkscape:window-y="0"
     inkscape:window-maximized="1"
     inkscape:current-layer="Ebene_1" /><g
     id="g3"
     transform="translate(-194.304,-218.695)"><path
       d="m 632.695,306.701 -28.512,-40.502 26.137,-25.198 -28.967,0 -22.355,24.911 0,-24.911 -22.172,0 0,65.387 3.994,0 0,12.404 -38.629,0 0,9.106 35.725,0 0,12.483 -35.725,0 0,8.872 39.336,0 0,12.562 -59.195,0 0,-55.114 -14.643,0 0,-23.338 12.641,0 13.078,23.023 26.25,0 -15.836,-25.382 c 3.395,-0.849 4.613,-1.319 6.227,-2.261 8.396,-4.63 9.055,-13.498 9.055,-16.605 0,-6.036 -2.164,-10.005 -3.404,-11.985 -5.369,-8.482 -13.957,-9.152 -22.91,-9.152 l -49.062,0 0,65.387 19.865,0 0,55.429 -19.865,0 0,-55.115 -10.59,0 -25.143,55.114 -18.448,0 -25.125,-55.429 20.806,0 13.506,33.443 13.607,-33.13 -9.729,0 c 2.936,-1.056 5.682,-2.337 8.418,-4.182 13.49,-9.155 14.715,-22.555 14.715,-28.496 0,-10.094 -3.859,-16.979 -6.037,-20.189 -4.613,-6.597 -12.82,-13.59 -30.47,-14.991 -3.019,-0.287 -5.938,-0.287 -8.96,-0.287 -14.906,0.188 -23.014,3.581 -28.684,7.453 -5.463,3.678 -14.428,12.078 -14.428,28.871 0,4.235 0.283,12.92 7.361,21.494 3.298,3.968 6.596,6.146 8.398,7.182 1.848,1.103 4.113,2.188 6.818,3.146 l -21.293,0 c 7.449,2.449 11.738,6.471 14.462,10.361 1.806,2.671 5.027,8.401 5.027,16.804 0,4.942 -1.021,16.093 -12.251,23.71 -2.9,1.963 -5.731,3.299 -9.026,4.239 -3.218,0.944 -8.088,1.887 -15.939,1.887 -11.777,0 -18.92,-2.591 -23.396,-5.261 -1.492,-0.865 -4.243,-2.671 -6.986,-5.97 -5.888,-7.144 -6.125,-14.366 -6.125,-17.897 0,-13.978 7.457,-20.963 12.014,-24.027 2.104,-1.438 4.656,-2.781 7.9,-3.859 3.122,-0.738 6.072,-2.06 8.562,-4.458 5.662,-5.468 5.284,-13.292 5.284,-15.561 l 0,-45.667 -23.952,0 0,43.969 c 0,1.884 -0.199,3.772 -1.611,5.188 -1.695,1.794 -4.434,1.702 -6.604,1.702 l -5.475,0 0,14.841 -11.171,0 0,55.114 -19.551,0 0,-35.486 -13.108,35.486 -15.308,0 -13.035,-35.329 0,35.329 -19.471,0 0,-55.114 -14.386,0 0,70.178 451.042,0 0,-70.178 -12.651,0 z m -145.006,-50.598 19.807,0 c 2.549,0 5.195,0.375 6.791,2.73 0.945,1.32 1.045,2.832 1.045,3.395 0,0.761 -0.1,2.269 -1.326,3.775 -1.504,1.799 -3.865,2.357 -8.393,2.357 l -17.924,0 0,-12.257 z m -106,18.203 c 0,-8.106 3.581,-16.13 11.417,-19.429 2.927,-1.234 5.475,-1.511 8.578,-1.511 3.593,0 5.379,0.467 7.086,1.04 3.206,1.129 5.471,2.828 6.412,3.769 2.449,2.162 6.038,7.548 6.038,16.035 0,7.549 -3.019,16.035 -10.472,19.337 -3.585,1.611 -7.828,1.611 -8.964,1.611 -4.056,0 -14.811,-0.854 -18.774,-12.737 -1.226,-3.489 -1.321,-6.882 -1.321,-8.115 z m 247.088,80.13 c -4.633,5.812 -12.955,9.028 -28.109,9.028 -13.031,0 -20.41,-3.061 -24.494,-7.693 -3.77,-4.159 -4.162,-8.479 -4.477,-10.521 l 19.551,-0.471 c 0.156,0.944 0.553,2.434 2.516,3.849 1.881,1.412 4.629,2.435 9.809,2.435 2.043,0 4.559,-0.237 6.439,-1.179 1.648,-0.864 3.141,-2.434 3.141,-4.396 0,-1.255 -0.547,-2.908 -3.141,-4.006 -1.332,-0.552 -4.629,-1.176 -8.479,-1.884 -4.32,-0.863 -8.717,-1.567 -13.033,-2.751 -4.713,-1.33 -9.031,-2.979 -11.855,-7.3 -2.043,-3.141 -2.199,-6.277 -2.199,-7.693 0,-2.984 0.865,-5.731 2.438,-8.165 1.799,-2.893 4.613,-5.3 8.742,-6.986 l -6.721,0 0,-16.361 8.303,-7.92 14.98,21.617 c 0.072,0 0.133,-0.008 0.209,-0.008 4.867,0 12.639,0.627 17.271,2.2 1.963,0.627 3.77,1.567 5.418,2.822 5.262,3.851 6.045,8.717 6.439,11.149 l -19.395,1.102 c -0.234,-0.632 -0.395,-1.259 -0.709,-1.806 -1.256,-2.12 -4.082,-3.379 -9.105,-3.379 -0.312,0 -5.104,-0.076 -7.457,1.887 -1.098,0.86 -1.254,2.115 -1.254,2.666 0,0.632 0.156,1.649 1.254,2.515 2.748,2.2 12.562,3.535 22.451,5.812 6.363,1.492 9.344,3.137 11.467,5.418 1.412,1.411 3.689,4.315 3.689,9.5 10e-4,3.77 -1.335,7.614 -3.689,10.519 z M 347.162,317.537 c 2.671,0.941 4.553,2.354 5.337,3.137 2.039,1.808 5.027,6.283 5.027,13.351 0,6.281 -2.514,13.346 -8.719,16.092 -2.98,1.34 -6.512,1.34 -7.457,1.34 -3.375,0 -12.324,-0.708 -15.622,-10.603 -1.022,-2.903 -1.102,-5.731 -1.102,-6.753 0,-6.749 2.988,-13.427 9.5,-16.169 2.437,-1.024 4.557,-1.26 7.143,-1.26 2.99,0 4.478,0.39 5.893,0.865 z m -98.194,25.041 13.973,-36.19 10.036,0 c 4.702,-1.048 9.137,-2.979 12.316,-6.795 3.776,-4.622 3.872,-9.538 3.872,-11.607 0,-4.901 -0.945,-8.957 -4.905,-12.258 -3.306,-2.828 -7.078,-3.493 -11.226,-4.159 5.376,-1.32 8.395,-3.864 9.898,-5.747 2.736,-3.497 2.832,-7.732 2.832,-9.243 0,-4.247 -1.316,-7.078 -2.265,-8.594 -3.964,-6.508 -12.167,-6.982 -18.862,-6.982 l -55.946,0 0,65.387 26.3,0 13.977,36.188 z m -16.219,-86.579 23.771,0 c 2.169,0 4.435,0.287 5.659,2.368 0.758,1.225 0.758,2.361 0.758,2.828 0,0.845 -0.283,1.882 -0.658,2.644 -1.515,2.735 -5.004,2.537 -7.453,2.537 l -22.077,0 0,-10.377 z m -0.188,24.819 26.882,0 c 1.603,0 6.042,0.1 6.042,5.468 0,3.022 -1.515,5.192 -4.53,5.857 -1.224,0.271 -3.122,0.271 -3.306,0.271 l -25.088,0 0,-11.596 z m 160.123,-62.123 17.55,0 0,13.682 -17.55,0 0,-13.682 z m 252.664,0 0,13.682 -220.032,0 0,-13.682 220.032,0 z m -267.769,13.682 -183.274,0 0,-13.682 183.274,0 0,13.682 z"
       id="path5"
       inkscape:connector-curvature="0"
       style="fill:#ffffff" /></g></svg>