<svg xmlns="http://www.w3.org/2000/svg" version="1" width="451.044" height="158.185" viewBox="0 0 451.044 158.18499"><path d="M438.391 88.006l-28.512-40.502 26.137-25.198h-28.967l-22.355 24.911V22.306h-22.172v65.387h3.994v12.404h-38.629v9.106h35.725v12.483h-35.725v8.872h39.336v12.562h-59.195V88.006h-14.643V64.668h12.641l13.078 23.023h26.25l-15.836-25.382c3.395-.849 4.613-1.319 6.227-2.261 8.396-4.63 9.055-13.498 9.055-16.605 0-6.036-2.164-10.005-3.404-11.985-5.369-8.482-13.957-9.152-22.91-9.152h-49.062v65.387h19.865v55.429h-19.865V88.007h-10.59l-25.143 55.114h-18.448l-25.125-55.429h20.806l13.506 33.443 13.607-33.13h-9.729c2.936-1.056 5.682-2.337 8.418-4.182 13.49-9.155 14.715-22.555 14.715-28.496 0-10.094-3.859-16.979-6.037-20.189-4.613-6.597-12.82-13.59-30.47-14.991-3.019-.287-5.938-.287-8.96-.287-14.906.188-23.014 3.581-28.684 7.453-5.463 3.678-14.428 12.078-14.428 28.871 0 4.235.283 12.92 7.361 21.494 3.298 3.968 6.596 6.146 8.398 7.182 1.848 1.103 4.113 2.188 6.818 3.146h-21.293c7.449 2.449 11.738 6.471 14.462 10.361 1.806 2.671 5.027 8.401 5.027 16.804 0 4.942-1.021 16.093-12.251 23.71-2.9 1.963-5.731 3.299-9.026 4.239-3.218.944-8.088 1.887-15.939 1.887-11.777 0-18.92-2.591-23.396-5.261-1.492-.865-4.243-2.671-6.986-5.97-5.888-7.144-6.125-14.366-6.125-17.897 0-13.978 7.457-20.963 12.014-24.027 2.104-1.438 4.656-2.781 7.9-3.859 3.122-.738 6.072-2.06 8.562-4.458 5.662-5.468 5.284-13.292 5.284-15.561V22.307H119.72v43.969c0 1.884-.199 3.772-1.611 5.188-1.695 1.794-4.434 1.702-6.604 1.702h-5.475v14.841H94.859v55.114H75.308v-35.486L62.2 143.121H46.892l-13.035-35.329v35.329H14.386V88.007H0v70.178h451.042V88.007h-12.651zM293.385 37.408h19.807c2.549 0 5.195.375 6.791 2.73.945 1.32 1.045 2.832 1.045 3.395 0 .761-.1 2.269-1.326 3.775-1.504 1.799-3.865 2.357-8.393 2.357h-17.924V37.408zm-106 18.203c0-8.106 3.581-16.13 11.417-19.429 2.927-1.234 5.475-1.511 8.578-1.511 3.593 0 5.379.467 7.086 1.04 3.206 1.129 5.471 2.828 6.412 3.769 2.449 2.162 6.038 7.548 6.038 16.035 0 7.549-3.019 16.035-10.472 19.337-3.585 1.611-7.828 1.611-8.964 1.611-4.056 0-14.811-.854-18.774-12.737-1.226-3.489-1.321-6.882-1.321-8.115zm247.088 80.13c-4.633 5.812-12.955 9.028-28.109 9.028-13.031 0-20.41-3.061-24.494-7.693-3.77-4.159-4.162-8.479-4.477-10.521l19.551-.471c.156.944.553 2.434 2.516 3.849 1.881 1.412 4.629 2.435 9.809 2.435 2.043 0 4.559-.237 6.439-1.179 1.648-.864 3.141-2.434 3.141-4.396 0-1.255-.547-2.908-3.141-4.006-1.332-.552-4.629-1.176-8.479-1.884-4.32-.863-8.717-1.567-13.033-2.751-4.713-1.33-9.031-2.979-11.855-7.3-2.043-3.141-2.199-6.277-2.199-7.693 0-2.984.865-5.731 2.438-8.165 1.799-2.893 4.613-5.3 8.742-6.986h-6.721V71.647l8.303-7.92 14.98 21.617c.072 0 .133-.008.209-.008 4.867 0 12.639.627 17.271 2.2a17.84 17.84 0 0 1 5.418 2.822c5.262 3.851 6.045 8.717 6.439 11.149l-19.395 1.102c-.234-.632-.395-1.259-.709-1.806-1.256-2.12-4.082-3.379-9.105-3.379-.312 0-5.104-.076-7.457 1.887-1.098.86-1.254 2.115-1.254 2.666 0 .632.156 1.649 1.254 2.515 2.748 2.2 12.562 3.535 22.451 5.812 6.363 1.492 9.344 3.137 11.467 5.418 1.412 1.411 3.689 4.315 3.689 9.5.001 3.77-1.335 7.614-3.689 10.519zM152.858 98.842c2.671.941 4.553 2.354 5.337 3.137 2.039 1.808 5.027 6.283 5.027 13.351 0 6.281-2.514 13.346-8.719 16.092-2.98 1.34-6.512 1.34-7.457 1.34-3.375 0-12.324-.708-15.622-10.603-1.022-2.903-1.102-5.731-1.102-6.753 0-6.749 2.988-13.427 9.5-16.169 2.437-1.024 4.557-1.26 7.143-1.26 2.99 0 4.478.39 5.893.865zm-98.194 25.041l13.973-36.19h10.036c4.702-1.048 9.137-2.979 12.316-6.795 3.776-4.622 3.872-9.538 3.872-11.607 0-4.901-.945-8.957-4.905-12.258-3.306-2.828-7.078-3.493-11.226-4.159 5.376-1.32 8.395-3.864 9.898-5.747 2.736-3.497 2.832-7.732 2.832-9.243 0-4.247-1.316-7.078-2.265-8.594-3.964-6.508-12.167-6.982-18.862-6.982H14.387v65.387h26.3l13.977 36.188zM38.445 37.304h23.771c2.169 0 4.435.287 5.659 2.368.758 1.225.758 2.361.758 2.828 0 .845-.283 1.882-.658 2.644-1.515 2.735-5.004 2.537-7.453 2.537H38.445V37.304zm-.188 24.819h26.882c1.603 0 6.042.1 6.042 5.468 0 3.022-1.515 5.192-4.53 5.857-1.224.271-3.122.271-3.306.271H38.257V62.123zM198.38 0h17.55v13.682h-17.55V0zm252.664 0v13.682H231.012V0h220.032zM183.275 13.682H.001V0h183.274v13.682z" fill="#fff"/></svg>